<svg width="143" height="165" viewBox="0 0 143 165" fill="none" xmlns="http://www.w3.org/2000/svg">
<path d="M127.374 106.066C127.243 111.599 117.498 115.441 121.465 120.939C130.221 122.288 126.239 128.654 131.036 130.821C122.556 145.968 108.871 147.86 95.8577 138.375C92.072 135.898 87.8092 134.849 84.3147 135.882C82.324 139.375 85.2856 139.787 87.1738 140.293C96.3251 142.291 105.551 157.807 136.52 143.028C140.646 141.123 140.021 135.517 138.234 131.109C141.666 129.505 141.872 125.321 142.378 119.944C145.745 107.821 134.686 108.869 127.374 106.066ZM78.6855 79.741C74.9092 79.8338 69.35 83.7577 65.6768 85.7107C70.86 89.0551 72.9188 93.0348 78.6855 91.7918C84.4542 90.5492 84.3491 86.4744 82.0796 81.7407C81.3678 80.256 80.1632 79.7049 78.6855 79.741ZM103.054 0.00437311C96.0073 0.358866 89.9456 21.067 82.7585 35.745C62.0962 45.1715 56.9261 32.9486 50.1794 34.9589C38.6881 9.26597 21.626 -16.4934 17.0157 14.1222C18.0351 37.2622 9.61528 39.1687 10.36 72.1858C10.36 72.1858 -4.65789 105.343 1.46925 134.682C5.7864 155.356 20.9679 163.158 31.1649 165C32.2201 156.544 44.3205 137.475 41.011 133.026C32.7534 121.923 35.3439 94.7257 56.2725 91.9146C59.1316 69.0363 73.3207 73.3427 71.8691 66.725C67.3208 45.993 86.9461 55.6707 90.2397 62.464C96.1577 73.2364 100.319 83.8241 105.156 88.8424C111.308 95.2249 119.654 98.7112 120.142 98.9123C118.389 97.7102 103.343 83.7481 98.9404 72.5335C96.2928 65.7885 96.559 50.5937 96.559 50.5937C104.193 49.2837 107.273 63.3731 115.564 76.1558C115.907 77.0765 115.846 77.8135 115.564 78.4278C114.42 77.7662 114.023 76.1068 112.65 75.9077C111.4 75.9077 110.387 77.8529 110.387 80.2515C110.387 82.6501 112.036 83.5064 114.308 84.6279C117.475 90.7422 120.767 92.989 123.935 94.5211L113.714 61.7621C113.335 41.246 115.314 20.729 104.477 0.212557C104.018 0.05148 103.536 -0.0190041 103.054 0.00437311ZM103.152 6.5454C103.718 6.53477 104.241 6.95371 104.704 7.90762C110.36 19.572 110.568 46.9501 110.53 56.6291C107.844 49.9234 103.819 38.6457 91.1296 35.2071C91.1296 35.2071 98.542 6.63338 103.152 6.5454ZM27.143 9.14738C29.7215 9.13545 32.652 10.7929 36.0517 17.593C41.4911 28.4733 45.3943 35.7114 47.2889 39.4578C51.1671 47.1264 45.5908 41.0627 43.8452 60.7386C43.5003 64.6238 42.1629 66.4923 39.5412 68.4643C33.8668 62.2426 29.8646 51.4454 27.1016 38.6086C21.6842 47.4345 30.6073 61.0818 30.7659 72.7527C24.7469 74.2618 20.8443 73.734 18.6174 72.9196C15.825 71.3882 14.9048 52.7061 20.0845 38.2035C24.399 26.1237 22.3481 10.7635 24.2663 10.0942C25.5859 9.63336 25.5956 9.15447 27.143 9.14738Z" fill="white"/>
</svg>
